<svg width="32" height="32" viewBox="0 0 32 32" fill="none" xmlns="http://www.w3.org/2000/svg">
<path fill-rule="evenodd" clip-rule="evenodd" d="M19.9736 31.9999C23.2026 31.9999 25.8446 29.1279 25.8446 25.6176V10.6846C25.8446 6.06955 23.6868 4.28228 19.9736 4.30223C18.3908 4.31072 13.5708 9.75796 8.89821 14.9161C5.46327 18.708 1.9892 22.1243 0.542295 24.2237C-0.724896 26.0623 -0.0916318 32 5.92451 32H19.9736V31.9999Z" fill="#5CBEFE"/>
<path fill-rule="evenodd" clip-rule="evenodd" d="M12.0264 6.58467e-05C8.79741 6.58467e-05 6.15552 2.8721 6.15552 6.38239V21.3154C6.15552 25.9304 8.31327 27.7177 12.0264 27.6978C13.6092 27.6893 18.4292 22.242 23.1018 17.0839C26.5368 13.292 30.0109 9.87569 31.4577 7.7763C32.7249 5.93766 32.0917 0 26.0755 0H12.0264V6.58467e-05Z" fill="#EF5579"/>
<path fill-rule="evenodd" clip-rule="evenodd" d="M25.8446 14.1212V10.6846C25.8446 6.06955 23.6868 4.28228 19.9736 4.30223C18.3908 4.31072 13.5708 9.75796 8.8982 14.9161C7.97335 15.9371 7.04572 16.9307 6.15552 17.8789V21.3155C6.15552 25.9305 8.31327 27.7178 12.0264 27.6978C13.6092 27.6893 18.4292 22.2421 23.1018 17.0839C24.0267 16.063 24.9543 15.0694 25.8445 14.1212H25.8446Z" fill="#545DB6"/>
</svg>
