<svg width="180" height="180" viewBox="0 0 180 180" fill="none" xmlns="http://www.w3.org/2000/svg">
<path fill-rule="evenodd" clip-rule="evenodd" d="M112.352 180C130.515 180 145.376 163.844 145.376 144.099V60.1006C145.376 34.1412 133.238 24.0877 112.352 24.2C103.448 24.2477 76.336 54.8885 50.0524 83.9032C30.7309 105.232 11.1892 124.449 3.05041 136.258C-4.07754 146.601 -0.515429 180 33.3254 180H112.352V180Z" fill="#5CBEFE"/>
<path fill-rule="evenodd" clip-rule="evenodd" d="M67.6486 0.000370388C49.4854 0.000370388 34.6248 16.1556 34.6248 35.901V119.899C34.6248 145.859 46.7622 155.912 67.6486 155.8C76.5516 155.752 103.664 125.111 129.948 96.0968C149.269 74.7676 168.811 55.5508 176.95 43.7417C184.077 33.3994 180.516 0 146.675 0H67.6486V0.000370388Z" fill="#EF5579"/>
<path fill-rule="evenodd" clip-rule="evenodd" d="M145.376 79.4315V60.1006C145.376 34.1412 133.238 24.0877 112.351 24.2C103.448 24.2477 76.3359 54.8885 50.0524 83.9032C44.8501 89.646 39.6322 95.2352 34.6248 100.569V119.9C34.6248 145.859 46.7622 155.912 67.6486 155.8C76.5516 155.752 103.664 125.112 129.948 96.0971C135.15 90.3542 140.368 84.7651 145.375 79.4315H145.376Z" fill="#545DB6"/>
</svg>
