<svg>
  <symbol xmlns="http://www.w3.org/2000/svg" width="44" height="40" viewBox="0 0 44 40" fill="none" id="logo">
    <path fill-rule="evenodd" clip-rule="evenodd"
      d="M27.142 39.9999C31.5298 39.9999 35.12 36.4099 35.12 32.022V13.3557C35.12 7.58696 32.1878 5.35286 27.142 5.3778C24.9912 5.38842 18.4413 12.1975 12.0917 18.6452C7.42399 23.385 2.7031 27.6554 0.73692 30.2796C-0.985056 32.5779 -0.124518 40 8.05077 40H27.142V39.9999Z"
      fill="#5CBEFE" />
    <path fill-rule="evenodd" clip-rule="evenodd"
      d="M16.3427 8.23084e-05C11.9548 8.23084e-05 8.36475 3.59013 8.36475 7.97799V26.6443C8.36475 32.4131 11.2969 34.6472 16.3427 34.6222C18.4935 34.6116 25.0433 27.8026 31.3929 21.3548C36.0606 16.615 40.7816 12.3446 42.7477 9.72038C44.4696 7.42208 43.6092 0 35.4339 0H16.3427V8.23084e-05Z"
      fill="#EF5579" />
    <path fill-rule="evenodd" clip-rule="evenodd"
      d="M35.12 17.6515V13.3557C35.12 7.58696 32.1879 5.35286 27.142 5.3778C24.9912 5.38842 18.4414 12.1975 12.0918 18.6452C10.835 19.9214 9.57443 21.1634 8.36475 22.3486V26.6444C8.36475 32.4132 11.2969 34.6473 16.3427 34.6223C18.4935 34.6117 25.0433 27.8026 31.3929 21.3549C32.6497 20.0787 33.9103 18.8367 35.1199 17.6515H35.12Z"
      fill="#545DB6" />
  </symbol>

  <symbol viewBox="0 0 582 506" fill="none" xmlns="http://www.w3.org/2000/svg" id="illustration">
    <path d="M328.099 50.2044H268.708V125.177H328.099V50.2044Z" fill="#EBEBEB" />
    <path d="M302.898 123.492H294.66V125.493H302.898V123.492Z" fill="#E0E0E0" />
    <path
      d="M300.305 76.0112L289.369 77.6167L285.29 87.8946L292.146 96.5671L303.082 94.9616L307.161 84.6836L300.305 76.0112Z"
      fill="#E0E0E0" />
    <path
      d="M305.424 82.657L294.488 84.2625L290.396 94.5273L297.252 103.213L308.201 101.607L312.281 91.3294L305.424 82.657Z"
      fill="#FAFAFA" />
    <path d="M304.069 49.1911H295.831V50.9019H304.069V49.1911Z" fill="#E0E0E0" />
    <path d="M403.256 80.5645H362.907V166.92H403.256V80.5645Z" fill="#F5F5F5" />
    <path d="M454.501 172.961H404.927V256.395H454.501V172.961Z" fill="#F5F5F5" />
    <path d="M460.528 79.0774H507.602V2.47308H509.273V79.0774H552.846V0.775436H460.528V79.0774Z" fill="#F5F5F5" />
    <path d="M403.256 172.961H362.907V256.395H403.256V172.961Z" fill="#F5F5F5" />
    <path d="M552.833 172.961H509.273V256.395H552.833V172.961Z" fill="#F5F5F5" />
    <path d="M454.501 80.5645H404.927V166.92H454.501V80.5645Z" fill="#F5F5F5" />
    <path d="M552.833 80.5645H509.273V166.92H552.833V80.5645Z" fill="#F5F5F5" />
    <path d="M403.256 257.896H362.907V333.079H403.256V257.896Z" fill="#F5F5F5" />
    <path d="M403.243 79.0774V2.47308H404.927V79.0774H454.501V0.775436H362.907V79.0774H403.243Z" fill="#F5F5F5" />
    <path d="M454.501 257.896H404.927V333.079H454.501V257.896Z" fill="#F5F5F5" />
    <path d="M552.833 257.896H509.273V333.079H552.833V257.896Z" fill="#F5F5F5" />
    <path d="M507.602 80.5645H460.528V166.92H507.602V80.5645Z" fill="#F5F5F5" />
    <path d="M507.602 257.896H460.528V333.079H507.602V257.896Z" fill="#F5F5F5" />
    <path d="M507.602 172.961H460.528V256.395H507.602V172.961Z" fill="#F5F5F5" />
    <path d="M91.1532 80.5645H50.8047V166.92H91.1532V80.5645Z" fill="#F5F5F5" />
    <path d="M142.398 172.961H92.8247V256.395H142.398V172.961Z" fill="#F5F5F5" />
    <path d="M148.426 79.0774H195.499V2.47308H197.184V79.0774H240.743V0.775436H148.426V79.0774Z" fill="#F5F5F5" />
    <path d="M91.1532 172.961H50.8047V256.395H91.1532V172.961Z" fill="#F5F5F5" />
    <path d="M240.743 172.961H197.184V256.395H240.743V172.961Z" fill="#F5F5F5" />
    <path d="M142.398 80.5645H92.8247V166.92H142.398V80.5645Z" fill="#F5F5F5" />
    <path d="M240.743 80.5645H197.184V166.92H240.743V80.5645Z" fill="#F5F5F5" />
    <path d="M91.1532 257.896H50.8047V333.079H91.1532V257.896Z" fill="#F5F5F5" />
    <path d="M91.1532 79.0774V2.47308H92.8246V79.0774H142.398V0.775436H50.8047V79.0774H91.1532Z" fill="#F5F5F5" />
    <path d="M142.398 257.896H92.8247V333.079H142.398V257.896Z" fill="#F5F5F5" />
    <path d="M240.743 257.896H197.184V333.079H240.743V257.896Z" fill="#F5F5F5" />
    <path d="M195.499 80.5645H148.426V166.92H195.499V80.5645Z" fill="#F5F5F5" />
    <path d="M195.499 257.896H148.426V333.079H195.499V257.896Z" fill="#F5F5F5" />
    <path d="M195.499 172.961H148.426V256.395H195.499V172.961Z" fill="#F5F5F5" />
    <path d="M458.067 466.218V504.896H514.629H577.007V466.218H458.067Z" fill="#EBEBEB" />
    <path d="M453.08 455.401V466.218H581.166V455.401H514.629H453.08Z" fill="#E0E0E0" />
    <path d="M517.129 504.896H577.007V466.218H581.166V455.401H514.629V465.218L517.129 504.896Z" fill="#E0E0E0" />
    <path d="M498.837 472.456H474.715V478.273H498.837V472.456Z" fill="#E0E0E0" />
    <path d="M502.588 485.55H471.609V497.842H502.588V485.55Z" fill="#F5F5F5" />
    <path d="M487.453 412.697L487.282 398.168L538.225 402.524L539.817 416.908L487.453 412.697Z" fill="#EBEBEB" />
    <path d="M498.452 404.77L498.229 407.38L530.091 410.106L530.314 407.496L498.452 404.77Z" fill="#E0E0E0" />
    <path d="M481.387 398.892L481.36 384.35L532.263 389.259L533.553 402.261L481.387 398.892Z" fill="#E0E0E0" />
    <path d="M481.374 386.337L481.347 396.141L530.934 399.8L530.105 390.746L481.374 386.337Z" fill="white" />
    <path
      d="M527.171 394.523C526.571 394.578 525.967 394.578 525.368 394.523L520.498 394.141C516.379 393.786 510.707 393.259 504.43 392.628C498.153 391.996 492.494 391.377 488.388 390.904L483.532 390.298C482.934 390.258 482.343 390.152 481.769 389.982C482.364 389.927 482.963 389.927 483.558 389.982L488.428 390.364C492.547 390.719 498.232 391.259 504.496 391.891C510.76 392.522 516.445 393.128 520.551 393.615L525.407 394.207C526.004 394.249 526.596 394.355 527.171 394.523Z"
      fill="#F5F5F5" />
    <path
      d="M527.065 395.747C526.466 395.812 525.862 395.812 525.262 395.747L520.327 395.51C516.182 395.286 510.444 394.931 504.114 394.483C497.784 394.036 492.047 393.601 487.901 393.259L483.006 392.812C482.402 392.784 481.802 392.696 481.216 392.549C481.815 392.483 482.42 392.483 483.019 392.549L487.941 392.786C492.099 393.009 497.837 393.378 504.167 393.812C510.497 394.246 516.221 394.694 520.367 395.049L525.276 395.496C525.878 395.527 526.477 395.611 527.065 395.747Z"
      fill="#F5F5F5" />
    <path d="M488.046 426.107L487.848 411.565L538.804 415.881L540.251 428.857L488.046 426.107Z" fill="#E0E0E0" />
    <path
      d="M493.652 426.409C493.226 424.047 493.019 421.651 493.033 419.25C492.819 416.859 492.841 414.452 493.099 412.065C493.527 414.427 493.734 416.824 493.718 419.224C493.932 421.615 493.91 424.022 493.652 426.409Z"
      fill="#F5F5F5" />
    <path
      d="M495.573 412.236C495.961 414.597 496.128 416.99 496.073 419.382C496.231 421.769 496.169 424.165 495.889 426.541C495.486 424.181 495.319 421.788 495.389 419.395C495.223 417.008 495.284 414.611 495.573 412.236Z"
      fill="#F5F5F5" />
    <path d="M500.206 418.619C509.089 419.606 519.538 420.158 528.565 420.961L500.206 418.619Z" fill="white" />
    <path
      d="M528.565 420.961C527.174 421.044 525.779 421.008 524.394 420.856C521.762 420.724 518.274 420.5 514.353 420.211C510.431 419.921 506.891 419.592 504.338 419.277C502.942 419.19 501.559 418.97 500.206 418.619C501.599 418.576 502.993 418.638 504.377 418.803L514.405 419.527C518.353 419.816 521.867 420.106 524.433 420.382C525.824 420.459 527.207 420.653 528.565 420.961Z"
      fill="#F5F5F5" />
    <path
      d="M532.276 428.449C531.841 426.309 531.621 424.132 531.618 421.948C531.392 419.761 531.392 417.556 531.618 415.368C532.061 417.507 532.282 419.685 532.276 421.869C532.518 424.056 532.518 426.262 532.276 428.449Z"
      fill="#F5F5F5" />
    <path
      d="M535.422 428.607C534.528 424.318 534.087 419.947 534.106 415.565C534.663 417.687 534.994 419.862 535.093 422.053C535.427 424.221 535.537 426.417 535.422 428.607Z"
      fill="#F5F5F5" />
    <path d="M507.72 421.882C513.326 422.264 517.603 422.54 522.077 422.646L507.72 421.882Z" fill="white" />
    <path
      d="M522.196 422.646C517.397 422.848 512.589 422.592 507.838 421.882C510.232 421.65 512.643 421.65 515.037 421.882C517.442 421.912 519.839 422.168 522.196 422.646Z"
      fill="#F5F5F5" />
    <path d="M491.454 454.506L490.507 439.99L541.607 441.609L543.739 454.493L491.454 454.506Z" fill="#EBEBEB" />
    <path d="M493.481 452.677L543.212 451.966L541.831 442.938L492.546 442.017L493.481 452.677Z" fill="white" />
    <path d="M492.849 440.28L492.375 425.738L543.41 429.068L545.108 442.017L492.849 440.28Z" fill="#F5F5F5" />
    <path d="M503.647 432.086L503.477 434.699L535.388 436.774L535.558 434.161L503.647 432.086Z" fill="#E0E0E0" />
    <path
      d="M542.344 446.649C541.696 446.758 541.04 446.806 540.383 446.794L535.119 446.926C530.631 447.005 524.42 447.071 517.564 447.097C510.707 447.123 504.509 447.097 500.008 447.097L494.744 447.005C494.093 447.024 493.441 446.984 492.796 446.886C493.44 446.776 494.092 446.728 494.744 446.742L500.008 446.61C504.496 446.531 510.707 446.478 517.564 446.439C524.42 446.399 530.631 446.439 535.119 446.439L540.449 446.531C541.083 446.516 541.717 446.555 542.344 446.649Z"
      fill="#EBEBEB" />
    <path
      d="M542.923 449.466C542.275 449.571 541.618 449.606 540.962 449.571H535.593C531.079 449.571 524.828 449.571 517.919 449.426C511.01 449.281 504.759 449.202 500.245 449.084L494.889 448.9C494.232 448.913 493.575 448.86 492.928 448.742C493.577 448.646 494.234 448.611 494.889 448.637H500.245C504.772 448.637 511.023 448.637 517.932 448.781C524.841 448.926 531.092 449.005 535.606 449.124L540.962 449.308C541.619 449.311 542.274 449.364 542.923 449.466Z"
      fill="#EBEBEB" />
    <path
      d="M567.164 504.896C567.164 505.093 440.38 505.238 284.013 505.238C127.646 505.238 0.836426 505.093 0.836426 504.896C0.836426 504.698 127.594 504.553 284.013 504.553C440.433 504.553 567.164 504.711 567.164 504.896Z"
      fill="#343434" />
    <path
      d="M44.4882 341.501C37.5265 342.62 34.4076 351.174 35.013 358.201C35.6183 365.229 38.5135 372.098 37.7371 379.112C36.7632 388.008 30.0253 395.536 29.2489 404.458C28.3277 414.986 35.8289 424.317 37.9871 434.647C39.0662 439.675 38.9215 444.978 40.7902 449.768C42.3839 453.843 45.3412 457.239 49.1581 459.378C52.9751 461.516 57.4156 462.265 61.7229 461.497C66.0302 460.729 69.9378 458.491 72.7799 455.164C75.622 451.838 77.2227 447.629 77.3092 443.254C77.454 435.174 72.4795 427.554 73.0848 419.5C73.5323 413.539 77.0328 407.893 76.2696 401.971C75.3747 394.917 68.8473 389.917 66.5443 383.192C64.2413 376.467 66.4522 369.058 65.6494 361.991C64.2282 349.318 57.1612 340.475 44.4882 341.501Z"
      fill="#EF5579" />
    <path
      d="M8.87714 402.866C7.6401 414.605 12.9041 428.423 18.9314 438.556C25.0561 448.767 34.2755 456.76 45.2514 461.375C46.4753 461.889 48.0018 462.31 49.0415 461.481C49.407 461.076 49.6818 460.597 49.8475 460.078C50.0131 459.558 50.0659 459.009 50.0021 458.467C50.0817 446.001 46.1203 433.844 38.7111 423.818C31.3019 413.792 20.8439 406.437 8.90346 402.853"
      fill="#EF5579" />
    <g opacity="0.1">
      <path
        d="M8.87714 402.866C7.6401 414.605 12.9041 428.423 18.9314 438.556C25.0561 448.767 34.2755 456.76 45.2514 461.375C46.4753 461.889 48.0018 462.31 49.0415 461.481C49.407 461.076 49.6818 460.597 49.8475 460.078C50.0131 459.558 50.0659 459.009 50.0021 458.467C50.0817 446.001 46.1203 433.844 38.7111 423.818C31.3019 413.792 20.8439 406.437 8.90346 402.853"
        fill="#343434" />
    </g>
    <path
      d="M60.0431 485.932C59.902 485.733 59.787 485.516 59.7009 485.287C59.4904 484.774 59.2008 484.142 58.8718 483.366C58.1612 481.681 57.1084 479.273 55.7661 476.299C53.1341 470.377 49.1071 462.31 44.1063 453.729C39.8147 446.421 35.159 439.332 30.1567 432.489C28.2354 429.857 26.643 427.765 25.5376 426.33L24.2216 424.646C23.932 424.264 23.7873 424.054 23.8136 424.041C23.9991 424.201 24.1708 424.377 24.3268 424.567L25.6428 426.159C26.8272 427.554 28.4722 429.62 30.4462 432.213C35.5744 438.991 40.2983 446.066 44.5932 453.4C48.8757 460.738 52.7208 468.323 56.1082 476.115C57.4242 479.102 58.3849 481.55 59.0166 483.261L59.7404 485.235C59.8635 485.457 59.9649 485.69 60.0431 485.932Z"
      fill="#343434" />
    <path
      d="M52.4761 373.98C52.5496 374.353 52.5936 374.732 52.6076 375.112C52.6603 375.91 52.7392 376.989 52.8445 378.349C53.0288 381.218 53.292 385.271 53.6078 390.193C54.2395 400.247 55.1344 414.118 56.2398 429.449C57.3453 444.781 58.3849 458.638 59.1613 468.679C59.543 473.654 59.8456 477.694 60.0694 480.523C60.1615 481.839 60.2273 482.958 60.2931 483.747C60.3252 484.124 60.3252 484.503 60.2931 484.879C60.206 484.512 60.1488 484.137 60.122 483.761C60.043 482.971 59.9246 481.892 59.7799 480.536C59.5167 477.668 59.135 473.627 58.6612 468.692C57.7664 458.664 56.6215 444.794 55.5423 429.462C54.4632 414.131 53.6999 400.392 53.1341 390.272C52.9103 385.284 52.7129 381.231 52.5813 378.362C52.5813 377.046 52.5024 375.914 52.4761 375.125C52.45 374.744 52.45 374.361 52.4761 373.98Z"
      fill="#343434" />
    <path
      d="M41.6719 469.192H71.0845V490.788C71.0845 494.53 69.5981 498.118 66.9525 500.764C64.3068 503.409 60.7185 504.896 56.977 504.896C53.3628 504.897 49.8854 503.514 47.261 501.029C44.6365 498.544 43.0648 495.147 42.8694 491.538L41.6719 469.192Z"
      fill="#455A64" />
    <path
      d="M424.707 291.546C423.07 290.336 421.051 289.756 419.022 289.914C419.022 288.808 419.022 288.137 419.022 288.137H387.964C387.964 288.137 386.99 308.627 402.677 309.351C409.704 309.68 413.718 306.535 416.021 302.574C417.177 302.848 418.36 302.994 419.548 303.008C421.282 303.085 422.994 302.6 424.43 301.626C425.221 301.007 425.848 300.203 426.257 299.286C426.665 298.368 426.842 297.364 426.773 296.362C426.816 295.455 426.653 294.55 426.295 293.716C425.937 292.881 425.394 292.139 424.707 291.546ZM422.575 299.165C421.259 300.152 418.877 300.008 417.311 299.731C418.092 297.552 418.601 295.284 418.824 292.98C420.184 292.823 421.557 293.144 422.706 293.888C423.043 294.2 423.304 294.586 423.468 295.015C423.632 295.444 423.696 295.905 423.654 296.362C423.715 296.882 423.649 297.409 423.461 297.897C423.273 298.385 422.969 298.821 422.575 299.165Z"
      fill="#545DB6" />
    <path
      d="M409.902 286.268C410.057 286.038 410.148 285.77 410.165 285.492C410.118 285.096 409.973 284.718 409.743 284.392C409.513 284.065 409.206 283.801 408.849 283.623C408.326 283.369 407.773 283.179 407.204 283.057C406.487 282.901 405.81 282.596 405.217 282.163C404.889 281.877 404.629 281.522 404.454 281.124C404.278 280.726 404.193 280.294 404.204 279.86C404.206 278.901 404.475 277.963 404.98 277.149C406.046 275.425 407.967 274.332 409.323 272.622C410.005 271.686 410.46 270.604 410.654 269.463C410.848 268.321 410.776 267.15 410.442 266.042C410.115 264.837 409.485 263.736 408.612 262.844C407.624 261.973 406.505 261.263 405.296 260.738C403.946 260.183 402.744 259.322 401.782 258.225C401.323 257.609 401.008 256.899 400.861 256.145C400.685 255.353 400.792 254.524 401.164 253.803C401.37 253.431 401.664 253.115 402.019 252.882L402.374 253.474C401.247 254.176 400.358 255.203 399.824 256.419C399.291 257.636 399.139 258.986 399.387 260.291C399.601 261.529 400.211 262.665 401.124 263.528C402.152 264.315 403.06 265.246 403.822 266.292C404.144 266.879 404.299 267.544 404.27 268.213C404.25 268.876 404.074 269.525 403.756 270.108C403.176 271.14 402.354 272.016 401.361 272.661C399.453 273.872 397.492 274.477 396.031 275.583C395.371 276.054 394.821 276.662 394.419 277.367C394.017 278.071 393.772 278.854 393.702 279.662C393.578 280.894 393.792 282.136 394.321 283.255C394.803 284.198 395.491 285.021 396.334 285.663L396.137 285.571C395.957 285.47 395.786 285.355 395.623 285.229C394.98 284.731 394.454 284.098 394.084 283.373C393.489 282.217 393.229 280.918 393.334 279.623C393.39 278.807 393.61 278.01 393.978 277.28C394.406 276.466 395.009 275.756 395.742 275.201C397.255 274.017 399.269 273.359 401.006 272.2C401.908 271.591 402.656 270.78 403.19 269.832C403.465 269.351 403.61 268.806 403.61 268.252C403.61 267.699 403.465 267.154 403.19 266.673C402.436 265.681 401.55 264.796 400.558 264.041C399.538 263.08 398.867 261.807 398.65 260.422C398.377 258.979 398.548 257.488 399.14 256.144C399.732 254.8 400.718 253.667 401.967 252.895L402.309 253.487C402.05 253.66 401.834 253.89 401.677 254.158C401.436 254.77 401.362 255.436 401.464 256.086C401.566 256.736 401.839 257.347 402.256 257.856C403.157 258.862 404.272 259.654 405.52 260.172C406.79 260.727 407.963 261.483 408.994 262.409C409.941 263.383 410.621 264.584 410.968 265.897C411.309 267.099 411.368 268.363 411.139 269.591C410.911 270.819 410.402 271.978 409.652 272.977C408.165 274.78 406.27 275.833 405.283 277.399C404.296 278.965 404.204 280.939 405.349 281.873C406.494 282.807 407.981 282.781 408.876 283.386C409.259 283.592 409.583 283.895 409.813 284.264C410.044 284.634 410.175 285.057 410.192 285.492C410.179 285.716 410.101 285.931 409.968 286.111C409.968 286.229 409.915 286.268 409.902 286.268Z"
      fill="#343434" />
    <path
      d="M216.305 123.795H64.8727C62.5252 123.795 60.6221 125.698 60.6221 128.046V164.381C60.6221 166.728 62.5252 168.631 64.8727 168.631H216.305C218.652 168.631 220.556 166.728 220.556 164.381V128.046C220.556 125.698 218.652 123.795 216.305 123.795Z"
      fill="#455A64" />
    <path
      d="M94.3379 153.695C93.1316 155.195 91.5075 156.305 89.6708 156.883C87.8341 157.461 85.8673 157.482 84.0189 156.942C82.1705 156.403 80.5235 155.328 79.2861 153.852C78.0486 152.377 77.2763 150.568 77.0667 148.654C76.8571 146.74 77.2196 144.807 78.1084 143.099C78.9972 141.391 80.3725 139.984 82.0603 139.058C83.7482 138.131 85.6729 137.725 87.5911 137.892C89.5094 138.059 91.3351 138.791 92.8376 139.995C93.8364 140.796 94.6675 141.785 95.2836 142.907C95.8996 144.029 96.2884 145.261 96.4277 146.534C96.5671 147.806 96.4542 149.094 96.0956 150.322C95.737 151.551 95.1397 152.697 94.3379 153.695Z"
      fill="white" />
    <path
      d="M92.219 144.285C90.6311 146.308 88.8697 148.188 86.955 149.905C86.5076 150.326 86.0733 150.734 85.639 151.142L85.4022 151.378L85.1653 151.142C83.7053 149.808 82.3827 148.331 81.2173 146.733C82.815 147.898 84.2919 149.221 85.6259 150.681H85.1521L86.4681 149.365C88.2325 147.506 90.1568 145.807 92.219 144.285Z"
      fill="#FF725E" />
    <path
      d="M204.961 142.93C204.961 143.114 184.629 143.272 159.546 143.272C134.463 143.272 114.144 143.114 114.144 142.93C114.144 142.746 134.463 142.588 159.546 142.588C184.629 142.588 204.961 142.732 204.961 142.93Z"
      fill="white" />
    <path
      d="M167.705 151.8C167.705 151.984 155.953 152.142 141.464 152.142C126.975 152.142 115.144 151.984 115.144 151.8C115.144 151.615 126.896 151.457 141.464 151.457C156.032 151.457 167.705 151.668 167.705 151.8Z"
      fill="white" />
    <path
      d="M216.305 175.08H64.8727C62.5252 175.08 60.6221 176.983 60.6221 179.33V215.665C60.6221 218.013 62.5252 219.916 64.8727 219.916H216.305C218.652 219.916 220.556 218.013 220.556 215.665V179.33C220.556 176.983 218.652 175.08 216.305 175.08Z"
      fill="#455A64" />
    <path
      d="M94.3379 204.979C93.1316 206.48 91.5075 207.59 89.6708 208.168C87.8341 208.746 85.8673 208.766 84.0189 208.227C82.1705 207.687 80.5235 206.612 79.2861 205.137C78.0486 203.662 77.2763 201.853 77.0667 199.939C76.8571 198.025 77.2196 196.091 78.1084 194.383C78.9972 192.675 80.3725 191.269 82.0603 190.342C83.7482 189.415 85.6729 189.01 87.5911 189.177C89.5094 189.344 91.3351 190.075 92.8376 191.28C94.8517 192.898 96.141 195.25 96.4223 197.819C96.7036 200.388 95.9539 202.963 94.3379 204.979Z"
      fill="white" />
    <path
      d="M92.219 195.583C90.6327 197.603 88.8712 199.479 86.955 201.189L85.639 202.505L85.4022 202.729L85.1653 202.492C83.7053 201.158 82.3827 199.681 81.2173 198.083C82.8123 199.252 84.2888 200.574 85.6259 202.031H85.1521L86.4681 200.715C88.2259 198.834 90.1508 197.116 92.219 195.583Z"
      fill="#FF725E" />
    <path
      d="M204.961 194.214C204.961 194.412 184.629 194.556 159.546 194.556C134.463 194.556 114.144 194.412 114.144 194.214C114.144 194.017 134.463 193.872 159.546 193.872C184.629 193.872 204.961 194.03 204.961 194.214Z"
      fill="white" />
    <path
      d="M167.705 203.084C167.705 203.282 155.953 203.426 141.464 203.426C126.975 203.426 115.144 203.282 115.144 203.084C115.144 202.887 126.896 202.742 141.464 202.742C156.032 202.742 167.705 202.9 167.705 203.084Z"
      fill="white" />
    <path
      d="M216.305 226.377H64.8727C62.5252 226.377 60.6221 228.28 60.6221 230.628V266.963C60.6221 269.31 62.5252 271.213 64.8727 271.213H216.305C218.652 271.213 220.556 269.31 220.556 266.963V230.628C220.556 228.28 218.652 226.377 216.305 226.377Z"
      fill="#455A64" />
    <path
      d="M94.3379 256.277C93.1316 257.778 91.5075 258.887 89.6708 259.465C87.8341 260.043 85.8673 260.064 84.0189 259.525C82.1705 258.985 80.5235 257.91 79.2861 256.435C78.0486 254.959 77.2763 253.15 77.0667 251.236C76.8571 249.322 77.2196 247.389 78.1084 245.681C78.9972 243.973 80.3725 242.567 82.0603 241.64C83.7482 240.713 85.6729 240.308 87.5911 240.474C89.5094 240.641 91.3351 241.373 92.8376 242.577C93.8364 243.378 94.6675 244.367 95.2836 245.489C95.8996 246.611 96.2884 247.844 96.4277 249.116C96.5671 250.388 96.4542 251.676 96.0956 252.904C95.737 254.133 95.1397 255.279 94.3379 256.277Z"
      fill="white" />
    <path
      d="M92.219 246.867C90.6389 248.897 88.877 250.778 86.955 252.487L85.639 253.724L85.4022 253.961L85.1653 253.724C83.7053 252.39 82.3827 250.913 81.2173 249.315C82.815 250.481 84.2919 251.803 85.6259 253.263H85.1521L86.4681 251.947C88.2325 250.089 90.1568 248.389 92.219 246.867Z"
      fill="#FF725E" />
    <path
      d="M204.961 245.512C204.961 245.696 184.629 245.854 159.546 245.854C134.463 245.854 114.144 245.696 114.144 245.512C114.144 245.328 134.463 245.17 159.546 245.17C184.629 245.17 204.961 245.328 204.961 245.512Z"
      fill="white" />
    <path
      d="M167.705 254.382C167.705 254.566 155.953 254.724 141.464 254.724C126.975 254.724 115.144 254.566 115.144 254.382C115.144 254.198 126.896 254.04 141.464 254.04C156.032 254.04 167.705 254.198 167.705 254.382Z"
      fill="white" />
    <path d="M311.202 396.154L308.688 504.896H303.898L304.201 396.431L311.202 396.154Z" fill="#343434" />
    <path d="M328.533 394.944L351.853 504.896H357.196L337.785 394.944H328.533Z" fill="#343434" />
    <path d="M284.816 396.154L259.009 504.896H253.666L277.078 395.707L284.816 396.154Z" fill="#343434" />
    <path
      d="M358.815 276.609C358.815 276.609 388.372 274.925 385.424 309.127C382.476 343.33 380.779 378.02 369.79 389.864C358.802 401.708 248.152 402.116 238.861 392.404C229.57 382.692 256.601 383.113 261.668 383.113C266.734 383.113 297.989 386.061 308.122 359.425C318.256 332.789 315.729 274.925 358.815 276.609Z"
      fill="#343434" />
    <path
      d="M360.71 276.688C360.71 276.688 383.305 281.32 381.2 304.969C379.094 328.617 373.172 370.019 362.183 380.573C351.195 391.127 308.227 393.43 284.895 391.983C257.864 390.285 240.809 385.14 240.809 385.14C240.809 385.14 235.874 388.311 237.361 390.404C238.848 392.496 252.034 400.668 315.926 399.3C379.818 397.931 375.383 388.509 378.028 378.244C380.673 367.979 386.253 313.049 385.477 300.981C384.7 288.914 378.62 278.741 360.71 276.688Z"
      fill="#455A64" />
    <path
      d="M297.226 176.317C300.782 175.091 304.643 175.071 308.211 176.261C311.78 177.45 314.856 179.782 316.966 182.897C319.822 187.318 320.493 192.872 323.401 197.254C325.467 200.347 328.52 202.624 331.047 205.361C333.574 208.098 335.64 211.717 334.995 215.389C334.39 218.823 331.481 221.877 332.06 225.325C332.613 228.549 336.008 230.654 336.732 233.865C337.509 237.642 333.876 241.169 330.06 241.761C326.244 242.354 322.454 240.88 318.861 239.458C315.268 238.037 311.452 236.616 307.649 237.3C303.24 238.103 299.858 241.564 296.002 243.88C291.937 246.203 287.283 247.292 282.609 247.014C277.935 246.736 273.443 245.103 269.682 242.314C266.787 240.09 264.247 236.642 264.958 233.102C265.616 229.759 268.906 227.443 269.774 224.166C271.169 219.297 267.142 214.323 267.734 209.282C268.55 202.518 276.946 199.426 279.947 193.319C281.408 190.385 281.539 186.963 282.816 183.949C284.092 180.936 287.461 178.251 290.462 179.541"
      fill="#343434" />
    <path
      d="M294.383 237.879C294.817 235.471 294.041 225.338 294.041 225.338C294.041 225.338 285.066 224.206 284.671 215.033C284.276 205.861 285.198 184.765 285.198 184.765L301.74 176.869L316.216 193.319L316.492 237.787L294.383 237.879Z"
      fill="#FFBE9D" />
    <path
      d="M286.369 200.939C286.371 201.164 286.44 201.383 286.566 201.569C286.693 201.755 286.871 201.899 287.079 201.985C287.286 202.07 287.515 202.092 287.735 202.049C287.956 202.005 288.159 201.898 288.318 201.74C288.478 201.582 288.588 201.38 288.634 201.16C288.68 200.94 288.66 200.712 288.577 200.503C288.494 200.294 288.352 200.114 288.167 199.986C287.983 199.857 287.765 199.786 287.54 199.781C287.232 199.781 286.936 199.903 286.716 200.119C286.497 200.336 286.372 200.631 286.369 200.939Z"
      fill="#343434" />
    <path
      d="M285.632 198.886C285.777 199.044 286.645 198.32 287.869 198.268C289.093 198.215 290.014 198.847 290.146 198.676C290.277 198.504 290.067 198.32 289.659 198.031C289.125 197.659 288.483 197.474 287.833 197.505C287.184 197.536 286.562 197.781 286.066 198.202C285.685 198.518 285.566 198.82 285.632 198.886Z"
      fill="#343434" />
    <path
      d="M299.792 200.939C299.775 201.099 299.791 201.26 299.841 201.413C299.89 201.566 299.971 201.707 300.078 201.827C300.186 201.946 300.317 202.042 300.464 202.107C300.61 202.173 300.769 202.207 300.93 202.207C301.091 202.207 301.25 202.173 301.396 202.107C301.543 202.042 301.675 201.946 301.782 201.827C301.889 201.707 301.97 201.566 302.02 201.413C302.069 201.26 302.086 201.099 302.068 200.939C302.086 200.779 302.069 200.618 302.02 200.465C301.97 200.312 301.889 200.171 301.782 200.051C301.675 199.932 301.543 199.836 301.396 199.771C301.25 199.705 301.091 199.672 300.93 199.672C300.769 199.672 300.61 199.705 300.464 199.771C300.317 199.836 300.186 199.932 300.078 200.051C299.971 200.171 299.89 200.312 299.841 200.465C299.791 200.618 299.775 200.779 299.792 200.939Z"
      fill="#343434" />
    <path
      d="M299.266 199.123C299.411 199.281 300.279 198.557 301.503 198.504C302.727 198.452 303.648 199.083 303.78 198.912C303.911 198.741 303.701 198.557 303.293 198.268C302.762 197.897 302.123 197.712 301.477 197.741C300.826 197.772 300.203 198.012 299.7 198.425C299.332 198.754 299.2 199.044 299.266 199.123Z"
      fill="#343434" />
    <path
      d="M294.647 209.704C293.997 209.51 293.324 209.409 292.646 209.401C292.33 209.401 292.028 209.322 291.975 209.098C291.946 208.749 292.014 208.398 292.172 208.085C292.449 207.269 292.752 206.4 293.054 205.453C293.879 203.24 294.543 200.971 295.041 198.662C294.046 200.789 293.214 202.989 292.554 205.242C292.265 206.164 291.975 207.032 291.699 207.874C291.516 208.288 291.469 208.749 291.567 209.19C291.609 209.307 291.679 209.411 291.771 209.493C291.863 209.576 291.974 209.635 292.094 209.664C292.268 209.688 292.445 209.688 292.62 209.664C293.29 209.775 293.973 209.788 294.647 209.704Z"
      fill="#343434" />
    <path
      d="M294.041 225.364C298.289 225.226 302.404 223.854 305.885 221.416C305.885 221.416 303.095 228.101 294.146 227.562L294.041 225.364Z"
      fill="#EB996E" />
    <path
      d="M295.094 212.941C295.169 212.553 295.338 212.19 295.586 211.883C295.833 211.575 296.153 211.333 296.515 211.178C296.765 211.064 297.037 211.005 297.311 211.005C297.586 211.005 297.858 211.064 298.108 211.178C298.348 211.297 298.546 211.487 298.676 211.722C298.805 211.957 298.859 212.227 298.831 212.494C298.757 212.801 298.592 213.078 298.357 213.29C298.122 213.501 297.829 213.636 297.515 213.678C296.903 213.759 296.281 213.714 295.686 213.546C295.519 213.52 295.358 213.462 295.212 213.375C295.141 213.33 295.084 213.265 295.049 213.188C295.014 213.11 295.002 213.025 295.015 212.941"
      fill="#EB996E" />
    <path
      d="M298.147 209.664C298.226 209.664 298.371 209.993 298.331 210.585C298.257 211.379 297.897 212.118 297.318 212.665C296.744 213.208 295.989 213.522 295.199 213.546C294.594 213.546 294.251 213.388 294.278 213.309C294.304 213.23 295.712 213.23 296.844 212.165C297.976 211.099 297.949 209.651 298.147 209.664Z"
      fill="#343434" />
    <path
      d="M284.447 183.726C284.777 186.383 286.064 188.828 288.068 190.604C290.071 192.379 292.654 193.364 295.331 193.372L292.843 187.897C295.054 190.464 297.344 193.161 300.384 194.635C303.424 196.109 307.385 196.346 309.965 194.135C310.807 196.386 310.794 198.873 311.57 201.136C312.347 203.4 314.202 212.77 316.518 212.401C318.834 212.033 320.243 202.65 320.795 200.557C321.46 197.582 321.416 194.493 320.669 191.537C319.922 188.582 318.491 185.843 316.492 183.542C314.136 180.794 311.174 178.632 307.84 177.225C304.506 175.818 300.89 175.205 297.278 175.435C294.058 175.577 290.953 176.672 288.356 178.58C286.138 180.35 284.591 182.825 283.974 185.594"
      fill="#343434" />
    <path
      d="M272.156 225.048C271.939 225.034 271.726 224.985 271.524 224.903C270.939 224.726 270.375 224.488 269.84 224.193C267.829 223.12 266.167 221.494 265.05 219.508C264.184 218.041 263.659 216.398 263.513 214.702C263.367 213.005 263.604 211.297 264.207 209.704C264.92 207.82 266.071 206.133 267.563 204.782C269.164 203.326 271.128 202.33 273.248 201.9C274.232 201.761 275.151 201.324 275.88 200.65C276.495 199.905 276.85 198.982 276.894 198.018C277.052 196.083 276.288 194.201 276.078 192.306C275.848 190.482 276.222 188.633 277.144 187.042C277.953 185.664 279.134 184.542 280.552 183.805C281.868 183.134 283.039 182.699 284.053 182.252C284.94 181.906 285.788 181.465 286.579 180.936C287.227 180.455 287.807 179.888 288.303 179.251C288.23 179.454 288.128 179.644 288.001 179.817C287.642 180.329 287.196 180.774 286.685 181.133C285.901 181.715 285.053 182.205 284.158 182.594C283.145 183.068 281.947 183.542 280.736 184.213C279.417 184.931 278.326 186.008 277.591 187.318C276.739 188.809 276.406 190.54 276.644 192.24C276.854 194.043 277.657 195.925 277.512 198.083C277.468 199.204 277.051 200.279 276.328 201.136C275.504 201.916 274.462 202.426 273.34 202.597C271.403 203.005 269.599 203.893 268.094 205.178C266.588 206.463 265.428 208.105 264.721 209.954C264.139 211.465 263.897 213.085 264.013 214.7C264.129 216.315 264.6 217.885 265.392 219.297C266.443 221.239 267.997 222.862 269.892 223.995C271.287 224.759 272.156 224.982 272.156 225.048Z"
      fill="#343434" />
    <path
      d="M331.731 237.103C331.731 237.103 332.508 236.576 333.863 235.602C335.826 234.303 337.385 232.479 338.364 230.338C338.963 228.852 339.055 227.211 338.627 225.667C338.39 224.831 337.936 224.073 337.311 223.469C336.6 222.846 335.813 222.315 334.969 221.89C333.997 221.368 333.178 220.602 332.592 219.667C332.006 218.733 331.673 217.662 331.626 216.56C331.534 214.178 333.008 212.204 333.534 210.085C333.983 207.955 333.632 205.735 332.547 203.847C331.545 202.05 330.204 200.464 328.599 199.176C325.586 196.649 322.44 194.793 320.269 192.596C318.479 190.96 317.146 188.888 316.4 186.581C316.22 185.951 316.114 185.302 316.084 184.647C316.05 184.42 316.05 184.189 316.084 183.963C316.193 184.822 316.369 185.671 316.61 186.503C317.434 188.715 318.79 190.69 320.558 192.253C322.717 194.32 325.822 196.096 328.954 198.662C330.617 199.994 332.006 201.634 333.047 203.492C334.226 205.523 334.606 207.921 334.113 210.217C333.508 212.52 332.1 214.415 332.205 216.507C332.238 217.53 332.544 218.525 333.093 219.388C333.642 220.252 334.412 220.952 335.324 221.416C336.211 221.873 337.038 222.439 337.785 223.1C338.464 223.789 338.953 224.641 339.206 225.575C339.638 227.234 339.518 228.99 338.864 230.575C338.31 231.854 337.499 233.005 336.482 233.957C335.717 234.676 334.889 235.323 334.008 235.892C333.297 236.353 332.692 236.682 332.337 236.879C332.145 236.98 331.942 237.055 331.731 237.103Z"
      fill="#343434" />
    <path
      d="M284.145 194.701C285.417 193.644 286.312 192.204 286.698 190.595C287.073 188.994 287.271 187.357 287.29 185.713C287.29 185.239 287.29 184.621 286.79 184.502C286.29 184.384 285.974 184.831 285.763 185.239C284.154 188.286 283.586 191.775 284.145 195.175L284.434 194.899"
      fill="#343434" />
    <path
      d="M261.181 498.381L260.931 486.537L283.092 485.932L283.632 503.237L282.316 503.369C276.209 503.869 251.232 505.501 247.113 504.369C242.467 503.119 261.181 498.381 261.181 498.381Z"
      fill="#5CBEFE" />
    <g opacity="0.5">
      <path
        d="M275.591 503.303C275.868 501.421 276.834 499.71 278.302 498.5C279.729 497.288 281.563 496.662 283.434 496.75L283.605 502.935L275.591 503.303Z"
        fill="white" />
    </g>
    <g opacity="0.4">
      <path
        d="M252.048 501.027C252.048 501.027 245.468 503.106 246.349 504.172C247.231 505.238 272.498 504.54 283.632 503.251V502.764L254.114 503.83C254.114 503.83 253.337 501.04 252.048 501.027Z"
        fill="white" />
    </g>
    <path
      d="M284 502.737H283.618L282.526 502.829L278.499 503.119C275.104 503.33 270.406 503.566 265.208 503.724C260.009 503.882 255.311 503.895 251.903 503.869C255.311 503.869 260.009 503.777 265.208 503.632C270.406 503.487 275.091 503.277 278.499 503.119L282.526 502.908H283.618L284 502.737Z"
      fill="#343434" />
    <path
      d="M254.101 504.172C253.898 503.508 253.624 502.868 253.285 502.264C252.879 501.708 252.406 501.204 251.876 500.763C252.551 501.037 253.125 501.51 253.522 502.119C253.92 502.728 254.122 503.445 254.101 504.172Z"
      fill="#343434" />
    <path
      d="M260.549 500.671C260.483 500.671 260.154 500.342 259.825 499.842C259.496 499.342 259.259 498.908 259.325 498.855C259.391 498.802 259.707 499.197 260.049 499.697C260.282 499.983 260.452 500.315 260.549 500.671Z"
      fill="#343434" />
    <path
      d="M262.312 499.671C262.312 499.737 261.904 499.513 261.522 499.171C261.141 498.829 260.851 498.526 260.891 498.473C260.93 498.421 261.299 498.631 261.694 498.974C262.088 499.316 262.365 499.618 262.312 499.671Z"
      fill="#343434" />
    <path
      d="M263.391 497.552C263.025 497.703 262.628 497.766 262.233 497.737C261.845 497.783 261.451 497.751 261.075 497.644C261.829 497.429 262.623 497.398 263.391 497.552Z"
      fill="#343434" />
    <path
      d="M263.734 496.065C263.351 496.341 262.889 496.485 262.418 496.473C261.975 496.556 261.519 496.51 261.102 496.342C261.535 496.257 261.976 496.213 262.418 496.21C262.852 496.129 263.292 496.08 263.734 496.065Z"
      fill="#343434" />
    <path
      d="M259.733 498.763C259.263 498.841 258.782 498.841 258.312 498.763C257.795 498.712 257.285 498.615 256.785 498.473C256.485 498.394 256.194 498.284 255.917 498.144C255.746 498.049 255.615 497.895 255.548 497.71C255.522 497.605 255.527 497.494 255.562 497.392C255.597 497.289 255.661 497.199 255.746 497.131C256.279 496.85 256.893 496.76 257.485 496.878C258.077 496.995 258.61 497.312 258.996 497.776C259.222 498.05 259.388 498.368 259.483 498.71C259.513 498.84 259.513 498.975 259.483 499.105C259.324 498.67 259.093 498.265 258.799 497.908C258.47 497.538 258.04 497.272 257.562 497.144C256.997 496.972 256.387 497.029 255.864 497.302C255.654 497.486 255.746 497.75 255.996 497.894C256.256 498.027 256.53 498.133 256.812 498.21C257.293 498.363 257.786 498.477 258.286 498.552C259.194 498.737 259.733 498.71 259.733 498.763Z"
      fill="#343434" />
    <path
      d="M259.378 498.842C259.184 498.552 259.113 498.197 259.18 497.855C259.216 497.481 259.338 497.121 259.536 496.802C259.651 496.588 259.819 496.407 260.024 496.276C260.229 496.144 260.464 496.067 260.707 496.052C260.853 496.078 260.983 496.16 261.069 496.28C261.155 496.401 261.19 496.55 261.167 496.697C261.133 496.924 261.057 497.142 260.944 497.342C260.761 497.657 260.54 497.949 260.286 498.21C260.078 498.475 259.806 498.684 259.496 498.816C259.496 498.816 259.772 498.552 260.154 498.092C260.367 497.819 260.556 497.528 260.72 497.223C260.904 496.907 261.023 496.368 260.72 496.315C260.417 496.263 260.009 496.657 259.799 496.947C259.61 497.229 259.48 497.547 259.417 497.881C259.367 498.199 259.353 498.521 259.378 498.842Z"
      fill="#343434" />
    <path
      d="M283.316 496.684C283.316 496.684 282.684 496.684 281.684 496.789C280.379 496.964 279.151 497.508 278.144 498.356C277.137 499.205 276.393 500.323 275.999 501.579C275.696 502.54 275.67 503.172 275.63 503.172C275.591 503.172 275.63 503.014 275.63 502.724C275.654 502.318 275.725 501.916 275.841 501.527C276.201 500.213 276.948 499.039 277.986 498.158C279.033 497.286 280.316 496.746 281.671 496.605C282.077 496.558 282.488 496.558 282.895 496.605C283.038 496.609 283.18 496.636 283.316 496.684Z"
      fill="#343434" />
    <path
      d="M280.762 487.524C280.964 489.034 281.07 490.555 281.078 492.078C281.172 493.594 281.172 495.115 281.078 496.631C280.884 495.125 280.778 493.609 280.762 492.091C280.677 490.57 280.677 489.045 280.762 487.524Z"
      fill="#343434" />
    <path
      d="M272.748 501.211C271.698 501.498 270.613 501.636 269.524 501.619C268.438 501.706 267.346 501.653 266.273 501.461C266.273 501.382 267.734 501.461 269.511 501.356C271.287 501.25 272.735 501.132 272.748 501.211Z"
      fill="#343434" />
    <path
      d="M277.091 501.092C277.091 501.092 276.986 501.395 276.841 501.737C276.696 502.079 276.63 502.369 276.551 502.369C276.472 502.369 276.433 502.014 276.551 501.632C276.67 501.25 277.038 501.04 277.091 501.092Z"
      fill="#343434" />
    <path
      d="M278.736 499.013C278.736 499.013 278.657 499.289 278.434 499.526C278.21 499.763 277.986 499.921 277.933 499.868C277.881 499.816 278.012 499.592 278.236 499.342C278.46 499.092 278.618 498.96 278.736 499.013Z"
      fill="#343434" />
    <path
      d="M280.987 498.013C280.987 498.092 280.684 498.092 280.355 498.21C280.026 498.329 279.802 498.526 279.75 498.473C279.697 498.421 279.868 498.105 280.263 497.96C280.658 497.815 281.013 497.947 280.987 498.013Z"
      fill="#343434" />
    <path
      d="M282.684 497.526C282.684 497.592 282.592 497.71 282.408 497.789C282.224 497.868 282.052 497.868 282.026 497.789C282 497.71 282.118 497.605 282.302 497.526C282.487 497.447 282.684 497.46 282.684 497.526Z"
      fill="#343434" />
    <path
      d="M207.672 435.069L212.805 424.409L232.847 433.911L225.491 449.584L224.175 449.071C218.503 446.768 195.486 436.911 192.328 434.042C188.827 430.844 207.672 435.069 207.672 435.069Z"
      fill="#5CBEFE" />
    <g opacity="0.5">
      <path
        d="M218.292 445.978C219.391 444.432 221.022 443.345 222.872 442.925C224.694 442.498 226.61 442.771 228.241 443.688L225.609 449.295L218.292 445.978Z"
        fill="white" />
    </g>
    <g opacity="0.4">
      <path
        d="M198.315 433.292C198.315 433.292 191.538 432.187 191.814 433.516C192.091 434.845 214.963 445.676 225.478 449.571L225.662 449.11L198.868 436.7C198.868 436.7 199.46 433.897 198.315 433.292Z"
        fill="white" />
    </g>
    <path
      d="M225.977 449.255C225.854 449.234 225.734 449.194 225.622 449.137L224.596 448.729L220.832 447.163C217.7 445.847 213.41 443.899 208.698 441.675C203.987 439.451 199.789 437.358 196.775 435.792L193.196 433.924L192.235 433.397L191.906 433.187L192.262 433.345L193.249 433.818L196.854 435.621C199.908 437.135 204.119 439.214 208.817 441.438C213.515 443.662 217.792 445.597 220.911 446.978L224.583 448.623L225.583 449.084L225.977 449.255Z"
      fill="#343434" />
    <path
      d="M198.723 437.029C198.849 436.353 198.897 435.664 198.868 434.976C198.744 434.296 198.55 433.63 198.289 432.989C198.795 433.522 199.093 434.217 199.131 434.95C199.26 435.67 199.115 436.412 198.723 437.029Z"
      fill="#343434" />
    <path
      d="M206.053 436.832C205.974 436.832 205.856 436.358 205.79 435.766C205.724 435.174 205.711 434.674 205.79 434.661C205.952 434.994 206.042 435.357 206.053 435.727C206.132 436.332 206.132 436.819 206.053 436.832Z"
      fill="#343434" />
    <path
      d="M208.08 436.74C208.014 436.74 207.804 436.411 207.593 435.937C207.382 435.463 207.29 435.055 207.369 435.029C207.448 435.003 207.646 435.358 207.843 435.832C208.04 436.306 208.146 436.714 208.08 436.74Z"
      fill="#343434" />
    <path
      d="M210.001 435.332C209.611 435.297 209.233 435.176 208.896 434.976C208.521 434.852 208.179 434.645 207.896 434.371C208.286 434.406 208.664 434.527 209.001 434.726C209.593 435.003 210.041 435.266 210.001 435.332Z"
      fill="#343434" />
    <path
      d="M210.988 434.174C210.535 434.189 210.084 434.114 209.661 433.951C209.238 433.788 208.853 433.542 208.527 433.226C209.347 433.545 210.167 433.861 210.988 434.174Z"
      fill="#343434" />
    <path
      d="M206.198 434.766C205.726 434.639 205.281 434.43 204.882 434.147C204.442 433.869 204.028 433.552 203.645 433.2C203.415 432.986 203.204 432.752 203.014 432.502C202.905 432.34 202.862 432.142 202.895 431.95C202.915 431.843 202.968 431.746 203.046 431.671C203.123 431.595 203.222 431.546 203.329 431.529C203.721 431.521 204.11 431.602 204.467 431.764C204.824 431.927 205.14 432.167 205.392 432.467C205.645 432.767 205.827 433.12 205.925 433.499C206.024 433.879 206.036 434.276 205.961 434.661C205.961 434.898 205.843 435.029 205.83 435.016C205.884 434.577 205.862 434.132 205.764 433.7C205.631 433.224 205.366 432.795 205.001 432.463C204.793 432.259 204.546 432.098 204.274 431.992C204.003 431.886 203.713 431.836 203.421 431.844C203.145 431.844 203.106 432.173 203.277 432.41C203.444 432.647 203.633 432.868 203.843 433.068C204.207 433.422 204.599 433.748 205.014 434.042C205.724 434.49 206.225 434.726 206.198 434.766Z"
      fill="#343434" />
    <path
      d="M205.843 434.674C205.806 434.328 205.9 433.98 206.106 433.7C206.312 433.385 206.587 433.119 206.909 432.924C207.108 432.784 207.339 432.698 207.581 432.673C207.823 432.647 208.067 432.684 208.291 432.779C208.408 432.87 208.486 433.003 208.508 433.15C208.53 433.297 208.494 433.447 208.409 433.568C208.281 433.755 208.115 433.912 207.922 434.029C207.616 434.237 207.284 434.405 206.935 434.529C206.628 434.66 206.295 434.718 205.961 434.7C205.961 434.7 206.317 434.595 206.869 434.345C207.189 434.206 207.493 434.034 207.777 433.832C208.08 433.647 208.435 433.213 208.133 433.002C207.949 432.944 207.755 432.927 207.564 432.952C207.373 432.977 207.19 433.044 207.027 433.147C206.734 433.317 206.475 433.541 206.264 433.805C206.09 434.078 205.949 434.369 205.843 434.674Z"
      fill="#343434" />
    <path
      d="M228.162 443.583C228.162 443.583 227.623 443.254 226.662 442.938C225.42 442.509 224.083 442.441 222.804 442.742C221.525 443.042 220.358 443.699 219.437 444.636C218.713 445.347 218.411 445.952 218.371 445.886C218.414 445.74 218.481 445.602 218.568 445.478C218.776 445.13 219.019 444.804 219.292 444.504C220.211 443.497 221.412 442.792 222.739 442.479C224.066 442.167 225.456 442.263 226.728 442.754C227.106 442.899 227.468 443.085 227.807 443.307C228.057 443.465 228.175 443.57 228.162 443.583Z"
      fill="#343434" />
    <path
      d="M230.044 434.266C229.535 435.699 228.941 437.101 228.267 438.464C227.676 439.861 227.003 441.224 226.254 442.543C226.763 441.111 227.357 439.709 228.031 438.345C228.616 436.945 229.288 435.582 230.044 434.266Z"
      fill="#343434" />
    <path
      d="M216.687 442.833C215.625 442.605 214.599 442.237 213.634 441.741C212.627 441.321 211.677 440.777 210.804 440.122C210.804 440.056 212.12 440.754 213.739 441.504C215.358 442.254 216.713 442.767 216.687 442.833Z"
      fill="#343434" />
    <path
      d="M220.621 444.689C220.621 444.768 220.384 444.912 220.108 445.149C219.832 445.386 219.634 445.623 219.568 445.583C219.503 445.544 219.568 445.215 219.937 444.952C220.305 444.689 220.608 444.623 220.621 444.689Z"
      fill="#343434" />
    <path
      d="M222.977 443.544C222.977 443.623 222.766 443.767 222.464 443.873C222.161 443.978 221.885 444.031 221.858 443.952C221.832 443.873 222.069 443.741 222.372 443.623C222.674 443.504 222.951 443.478 222.977 443.544Z"
      fill="#343434" />
    <path
      d="M225.491 443.715C225.491 443.715 225.175 443.636 224.833 443.609C224.49 443.583 224.201 443.609 224.175 443.609C224.148 443.609 224.438 443.346 224.872 443.399C225.306 443.452 225.543 443.662 225.491 443.715Z"
      fill="#343434" />
    <path
      d="M227.188 444.031C227.188 444.031 227.017 444.149 226.82 444.136C226.623 444.123 226.465 444.044 226.478 443.978C226.491 443.912 226.649 443.846 226.833 443.859C227.017 443.873 227.188 443.952 227.188 444.031Z"
      fill="#343434" />
    <path
      d="M353.748 280.189L349.037 256.501C345.615 237.208 318.506 235.892 318.506 235.892L297.16 235.537C297.16 235.537 281.368 233.418 271.643 244.393C261.575 255.75 249.192 269.187 249.192 269.187L258.641 292.967L281.013 274.543C279.142 277.825 278.111 281.518 278.012 285.295C278.012 291.598 284.592 294.507 284.592 294.507L286.632 313.628L280.052 344.594L349.55 341.804C348.377 331.418 344.863 321.433 339.272 312.602L340.588 280.189H353.748Z"
      fill="#5CBEFE" />
    <path
      d="M323.967 253.697C324.153 254.184 324.277 254.693 324.335 255.211C324.559 256.329 324.822 257.711 325.151 259.356C325.862 263.015 326.783 267.779 327.783 273.043C328.783 278.307 329.678 283.255 330.231 286.782C330.521 288.545 330.718 289.98 330.836 290.967C330.931 291.478 330.962 292 330.929 292.519C330.755 292.03 330.635 291.522 330.573 291.006C330.35 289.887 330.073 288.506 329.757 286.861C329.047 283.202 328.125 278.438 327.125 273.174C326.125 267.91 325.23 262.975 324.678 259.435C324.388 257.672 324.191 256.251 324.072 255.25C323.987 254.737 323.951 254.217 323.967 253.697Z"
      fill="#343434" />
    <path
      d="M354.156 278.952C349.885 279.317 345.597 279.449 341.312 279.346C337.028 279.473 332.741 279.372 328.468 279.044C332.739 278.686 337.027 278.559 341.312 278.662C345.595 278.535 349.883 278.632 354.156 278.952Z"
      fill="#343434" />
    <path
      d="M356.801 300.376C355.485 289.032 353.603 279.32 353.603 279.32H328.994C328.994 279.32 332.047 293.796 331.376 297.086C330.771 299.994 283.092 301.916 270.669 302.113C269.919 301.56 268.853 302.495 267.892 301.653C267.044 300.899 266.328 300.01 265.773 299.021C265.04 297.82 264.47 296.528 264.076 295.178C264.029 294.925 263.91 294.691 263.732 294.506C263.554 294.32 263.326 294.191 263.075 294.133C262.825 294.076 262.563 294.093 262.322 294.183C262.081 294.273 261.872 294.431 261.72 294.638C261.22 295.704 261.786 299.244 264.142 302.666C266.497 306.087 260.312 304.311 258.048 303.705C255.785 303.1 248.679 301.56 247.955 302.126C246.876 302.955 247.547 304.285 249.823 304.837C252.1 305.39 258.825 307.469 258.456 308.785C258.088 310.101 246.612 306.719 246.612 306.719C246.612 306.719 244.27 305.627 243.796 307.009C242.954 309.509 255.416 312.036 256.614 312.273C257.443 312.431 257.088 313.76 256.206 313.589C255.324 313.418 244.81 310.075 243.928 312.615C243.243 314.562 254.166 314.799 255.969 316.721C257.772 318.642 247.705 315.681 247.126 317.563C246.915 318.274 251.074 318.589 257.127 319.445C263.316 320.035 269.534 320.255 275.749 320.103C289.711 320.866 339.088 321.893 349.629 321.142C361.894 320.208 357.275 304.324 356.801 300.376Z"
      fill="#FFBE9D" />
    <path
      d="M278.604 280.86C278.796 279.777 279.078 278.711 279.447 277.675C279.736 276.688 280.092 275.53 280.539 274.253C280.763 273.622 281.013 272.937 281.289 272.266C281.447 271.898 281.644 271.582 281.737 271.279C281.841 270.948 281.885 270.6 281.868 270.253C281.804 269.518 281.694 268.789 281.539 268.068C281.408 267.358 281.276 266.673 281.144 266.002C280.934 264.686 280.723 263.554 280.539 262.475C280.295 261.399 280.163 260.301 280.144 259.198C280.548 260.226 280.839 261.293 281.013 262.383C281.25 263.449 281.5 264.62 281.763 265.87L282.197 267.95C282.377 268.702 282.495 269.468 282.552 270.24C282.574 270.663 282.516 271.087 282.381 271.49C282.244 271.845 282.085 272.192 281.908 272.529C281.631 273.187 281.368 273.845 281.131 274.477C280.697 275.675 280.276 276.793 279.907 277.82C279.601 278.883 279.163 279.904 278.604 280.86Z"
      fill="#343434" />
    <path
      d="M307.293 191.148C309.188 193.596 311.241 196.412 310.833 199.478C310.504 202.11 308.359 204.545 308.714 207.23C309.136 210.322 312.662 212.349 312.899 215.468C313.044 218.1 310.82 220.047 309.254 222.048C308.105 223.527 307.259 225.218 306.764 227.025C306.27 228.831 306.136 230.718 306.372 232.576C306.631 234.424 307.307 236.188 308.349 237.737C309.391 239.285 310.772 240.575 312.386 241.511C314.023 242.417 315.866 242.883 317.736 242.865C319.607 242.846 321.44 242.344 323.059 241.406C325.912 239.416 327.99 236.501 328.941 233.155C330.415 228.917 330.81 223.943 328.296 220.205C327.27 218.705 325.783 217.415 325.454 215.626C325.033 213.362 326.638 211.23 326.888 208.94C327.231 205.874 325.112 203.071 322.769 201.044C320.427 199.018 317.663 197.412 315.913 194.872"
      fill="#343434" />
    <g opacity="0.3">
      <path
        d="M324.796 260.106C325.651 273.266 326.112 285.439 326.428 298.639C328.185 298.563 329.891 298.027 331.376 297.086C332.047 291.454 327.783 274.306 324.796 260.106Z"
        fill="#343434" />
    </g>
    <path
      d="M292.712 254.04C292.521 253.036 292.626 251.998 293.015 251.052C293.462 249.447 294.16 248.276 294.331 248.355C294.274 249.345 294.051 250.319 293.673 251.237C293.502 252.216 293.178 253.162 292.712 254.04Z"
      fill="#FAFAFA" />
    <path
      d="M278.736 254C278.63 254.158 277.696 253.697 276.788 252.829C275.88 251.96 275.354 251.052 275.472 250.947C275.591 250.842 276.354 251.513 277.222 252.329C278.091 253.145 278.828 253.842 278.736 254Z"
      fill="#FAFAFA" />
    <path
      d="M265.379 264.923C265.379 264.923 265.26 264.805 265.181 264.568H265.484C265.689 265.641 265.689 266.744 265.484 267.818C265.406 269.047 264.945 270.22 264.168 271.174C264.323 270.002 264.556 268.841 264.865 267.7C265.102 266.384 265.155 265.147 265.234 264.581H265.537C265.458 264.844 265.431 264.91 265.379 264.923Z"
      fill="#FAFAFA" />
    <path
      d="M264.786 278.583C263.782 278.541 262.798 278.281 261.904 277.82C260.378 277.228 259.193 276.609 259.272 276.425C260.282 276.464 261.27 276.725 262.167 277.188C263.668 277.78 264.852 278.399 264.786 278.583Z"
      fill="#FAFAFA" />
    <path
      d="M276.104 271.016C275.92 271.016 275.946 269.832 276.38 268.476C276.815 267.121 277.42 266.147 277.591 266.226C277.762 266.305 277.433 267.371 277.025 268.674C276.617 269.976 276.236 271.042 276.104 271.016Z"
      fill="#FAFAFA" />
    <path
      d="M287.948 241.064C287.948 241.248 286.961 241.446 285.724 241.511C284.487 241.577 283.487 241.511 283.474 241.274C283.461 241.038 284.461 240.88 285.698 240.827C286.935 240.774 287.948 240.866 287.948 241.064Z"
      fill="#FAFAFA" />
    <path
      d="M290.356 266.765C290.238 266.897 289.172 266.107 288.461 264.66C287.93 263.834 287.741 262.833 287.935 261.87C288.132 261.87 288.409 263.041 289.067 264.357C289.725 265.673 290.501 266.621 290.356 266.765Z"
      fill="#FAFAFA" />
    <path
      d="M313.728 261.251C313.86 261.383 313.031 262.436 311.781 263.515C310.53 264.594 309.359 265.252 309.254 265.094C309.149 264.936 310.109 264.041 311.333 262.988C312.557 261.936 313.597 261.12 313.728 261.251Z"
      fill="#FAFAFA" />
    <path
      d="M302.174 257.619C302.279 257.777 301.556 258.501 300.542 259.251C299.529 260.001 298.608 260.501 298.502 260.343C298.397 260.185 299.121 259.462 300.134 258.711C301.148 257.961 302.056 257.474 302.174 257.619Z"
      fill="#FAFAFA" />
    <path
      d="M307.846 248.17C306.777 247.946 305.8 247.405 305.043 246.617C303.727 245.446 302.924 244.183 303.082 244.078C303.24 243.972 304.188 244.986 305.49 246.091C306.793 247.196 307.938 247.999 307.846 248.17Z"
      fill="#FAFAFA" />
    <path
      d="M321.151 244.485C321.256 244.63 320.519 245.394 319.479 246.17C318.44 246.946 317.505 247.486 317.387 247.328C317.268 247.17 318.019 246.42 319.058 245.63C320.098 244.841 321.032 244.328 321.151 244.485Z"
      fill="#FAFAFA" />
    <path
      d="M332.258 249.749C332.241 248.798 332.383 247.851 332.679 246.946C332.981 245.433 333.179 244.183 333.376 244.196C333.668 245.135 333.668 246.139 333.376 247.078C333.047 248.657 332.429 249.815 332.258 249.749Z"
      fill="#FAFAFA" />
    <path
      d="M334.219 262.423C334.087 262.554 332.903 261.672 331.587 260.435C330.271 259.198 329.257 258.093 329.389 257.961C329.521 257.83 330.705 258.698 332.021 259.935C333.337 261.172 334.35 262.278 334.219 262.423Z"
      fill="#FAFAFA" />
    <path
      d="M343.22 257.093C343.049 257.014 343.391 255.777 343.983 254.461C344.575 253.145 345.207 251.987 345.378 252.066C345.331 252.99 345.069 253.891 344.615 254.698C344.009 256.093 343.378 257.172 343.22 257.093Z"
      fill="#FAFAFA" />
    <path
      d="M343.681 272.319C343.905 271.218 344.353 270.174 344.997 269.253C345.44 268.23 346.079 267.305 346.879 266.528C346.655 267.626 346.207 268.666 345.563 269.582C345.122 270.609 344.482 271.539 343.681 272.319Z"
      fill="#FAFAFA" />
    <path
      d="M334.811 274.648C334.653 274.767 333.758 273.819 332.784 272.529C331.81 271.24 331.166 270.121 331.31 270.003C331.455 269.884 332.376 270.832 333.337 272.121C334.298 273.411 334.956 274.53 334.811 274.648Z"
      fill="#FAFAFA" />
    <path
      d="M318.071 281.162C318.388 279.783 319.004 278.489 319.874 277.372C320.562 276.139 321.515 275.074 322.664 274.253C322.049 275.493 321.308 276.666 320.453 277.754C319.777 278.968 318.979 280.11 318.071 281.162Z"
      fill="#FAFAFA" />
    <path
      d="M306.043 279.952C305.238 279.065 304.608 278.033 304.187 276.912C303.566 275.885 303.142 274.751 302.937 273.569C304.369 275.48 305.423 277.646 306.043 279.952Z"
      fill="#FAFAFA" />
    <path
      d="M290.896 276.425C290.141 277.525 289.207 278.49 288.132 279.281C287.208 280.242 286.127 281.039 284.934 281.636C284.803 281.491 286.04 280.215 287.685 278.767C288.612 277.807 289.698 277.014 290.896 276.425Z"
      fill="#FAFAFA" />
    <path
      d="M296.647 292.875C296.489 292.993 295.41 291.769 294.015 290.348C292.62 288.927 291.383 287.821 291.501 287.716C292.667 288.173 293.705 288.904 294.528 289.848C295.472 290.668 296.199 291.707 296.647 292.875Z"
      fill="#FAFAFA" />
    <path
      d="M307.254 293.375C307.329 292.17 307.734 291.009 308.425 290.019C309.412 288.308 310.61 287.203 310.741 287.387C310.269 288.441 309.687 289.442 309.004 290.374C308.526 291.432 307.939 292.438 307.254 293.375Z"
      fill="#FAFAFA" />
    <path
      d="M322.164 295.112C320.959 294.544 319.859 293.774 318.913 292.835C317.821 292.065 316.865 291.117 316.084 290.032C317.294 290.6 318.397 291.37 319.348 292.309C320.436 293.08 321.388 294.027 322.164 295.112Z"
      fill="#FAFAFA" />
    <path
      d="M320.848 255.922C319.816 255.756 318.853 255.299 318.071 254.606C316.676 253.592 315.821 252.474 315.952 252.342C316.084 252.21 317.137 253.079 318.479 254.053C319.821 255.027 320.848 255.75 320.848 255.922Z"
      fill="#FAFAFA" />
    <path
      d="M299.305 323.367C299.384 323.551 298.318 324.117 297.134 324.998C295.949 325.88 295.067 326.709 294.923 326.591C294.778 326.472 295.449 325.38 296.726 324.446C298.002 323.511 299.252 323.195 299.305 323.367Z"
      fill="#FAFAFA" />
    <path
      d="M315.229 329.868C314.081 328.09 313.34 326.082 313.057 323.985C314.199 325.765 314.94 327.772 315.229 329.868Z"
      fill="#FAFAFA" />
    <path
      d="M331.284 324.182C331.429 324.314 330.6 325.393 329.455 326.591C328.31 327.788 327.27 328.657 327.138 328.525C327.007 328.394 327.823 327.315 328.968 326.117C330.113 324.919 331.152 324.064 331.284 324.182Z"
      fill="#FAFAFA" />
    <path
      d="M343.22 332.842C343.075 332.986 342.009 332.144 340.43 331.842C338.851 331.539 337.548 331.842 337.482 331.67C337.923 331.352 338.432 331.14 338.969 331.054C339.506 330.967 340.056 331.007 340.575 331.17C342.312 331.526 343.312 332.736 343.22 332.842Z"
      fill="#FAFAFA" />
    <path
      d="M349.708 338.698C349.708 338.698 258.825 319.655 250.021 323.827C241.217 327.999 200.645 428.291 200.645 428.291L233.321 442.346L268.471 357.122C268.471 357.122 332.1 380.362 343.22 378.02C354.34 375.678 349.708 338.698 349.708 338.698Z"
      fill="#455A64" />
    <path
      d="M309.083 344.041C307.701 344.501 255.127 366.123 251.416 373.059C247.705 379.994 256.812 495.368 256.812 495.368H286.711L284.869 392.838L343.22 378.02L309.083 344.041Z"
      fill="#455A64" />
    <path
      d="M343.523 378.296C343.235 378.285 342.949 378.25 342.667 378.191L340.22 377.757C338.101 377.362 335.035 376.757 331.258 375.954C323.717 374.362 313.32 372.006 302.003 368.703C296.344 367.071 291.001 365.36 286.211 363.702C281.421 362.044 277.091 360.386 273.551 358.872C271.761 358.148 270.169 357.425 268.774 356.793C267.379 356.161 266.142 355.622 265.208 355.122L262.997 354.003C262.728 353.886 262.472 353.74 262.233 353.569C262.513 353.652 262.786 353.758 263.049 353.885L265.326 354.885C266.3 355.332 267.511 355.859 268.919 356.451C270.327 357.043 271.932 357.767 273.722 358.425C277.288 359.886 281.618 361.425 286.421 363.11C291.225 364.794 296.581 366.413 302.213 368.045C313.518 371.295 323.875 373.769 331.389 375.48L340.299 377.494L342.72 378.046C342.995 378.102 343.264 378.186 343.523 378.296Z"
      fill="#343434" />
    <path
      d="M251.429 399.563C251.282 398.998 251.189 398.421 251.153 397.839C251.021 396.589 250.85 394.996 250.653 393.101C250.455 391.206 250.245 388.693 250.008 386.087C249.605 383.201 249.605 380.274 250.008 377.388C250.591 374.471 252.122 371.829 254.364 369.874C256.147 368.285 258.167 366.984 260.352 366.018C261.799 365.359 263.279 364.775 264.787 364.268C265.33 364.05 265.895 363.887 266.471 363.781C266.471 363.899 264.155 364.728 260.562 366.413C258.456 367.404 256.513 368.708 254.798 370.282C252.688 372.171 251.243 374.691 250.679 377.467C250.311 380.294 250.311 383.156 250.679 385.982C250.876 388.614 251.048 390.969 251.192 393.009C251.337 395.049 251.403 396.51 251.469 397.76C251.522 398.361 251.509 398.965 251.429 399.563Z"
      fill="#343434" />
    <path
      d="M277.657 389.653C280.182 390.268 282.579 391.324 284.737 392.772C282.214 392.152 279.818 391.096 277.657 389.653Z"
      fill="#343434" />
    <path
      d="M280.302 386.495C281.154 387.576 281.949 388.7 282.684 389.864C284 391.667 285.408 392.917 285.316 393.075C284.028 392.45 282.939 391.48 282.171 390.272C281.203 389.215 280.555 387.906 280.302 386.495Z"
      fill="#343434" />
    <path
      d="M291.778 391.18C291.778 391.18 291.686 391.43 291.317 391.654C290.783 391.937 290.184 392.077 289.58 392.062C288.75 392.033 287.92 392.055 287.093 392.128C286.649 392.193 286.248 392.426 285.971 392.779C285.695 393.131 285.564 393.576 285.606 394.023C285.707 396.691 285.583 399.363 285.237 402.011C284.9 399.349 284.794 396.663 284.921 393.983C284.928 393.372 285.126 392.778 285.487 392.285C285.875 391.849 286.408 391.568 286.987 391.496C287.865 391.448 288.746 391.475 289.619 391.575C290.361 391.629 291.104 391.494 291.778 391.18Z"
      fill="#343434" />
    <path opacity="0.3" d="M284.605 323.235L346.55 328.209L343.904 321.274L285.211 320.432L284.605 323.235Z"
      fill="#343434" />
    <path
      d="M452.264 309.641H87.0869V319.379H106.616L96.5489 504.593L102.102 504.896L112.196 319.379H432.353L440.933 504.751H446.513L437.919 319.379H452.264V309.641Z"
      fill="#343434" />
    <path d="M193.591 252.052L213.844 311.22H305.543L304.859 308.18L267.787 307.022L250.705 252.013L193.591 252.052Z"
      fill="#343434" />
    <path
      d="M234.229 279.833C234.834 282.268 233.795 284.637 231.913 285.097C230.031 285.558 227.965 284.044 227.399 281.61C226.833 279.175 227.833 276.82 229.715 276.346C231.597 275.872 233.624 277.412 234.229 279.833Z"
      fill="white" />
  </symbol>

  <symbol xmlns="http://www.w3.org/2000/svg" width="24" height="24" viewBox="0 0 24 24" fill="none" id="arrow-bottom">
    <path d="M19.9201 8.94984L13.4001 15.4698C12.6301 16.2398 11.3701 16.2398 10.6001 15.4698L4.08008 8.94984"
      stroke="#343434" stroke-width="1.5" stroke-miterlimit="10" stroke-linecap="round" stroke-linejoin="round" />
  </symbol>

  <symbol xmlns="http://www.w3.org/2000/svg" width="18" height="18" viewBox="0 0 18 18" fill="none" id="icon-close">
    <path d="M11.2014 6.87164L6.87119 11.2018" stroke="#343434" stroke-width="1.25" stroke-linecap="round"
      stroke-linejoin="round" />
    <path d="M11.2033 11.2041L6.86868 6.86945" stroke="#343434" stroke-width="1.25" stroke-linecap="round"
      stroke-linejoin="round" />
    <path fill-rule="evenodd" clip-rule="evenodd"
      d="M0.695312 9.03639C0.695312 2.78092 2.78107 0.69516 9.03655 0.69516C15.292 0.69516 17.3778 2.78092 17.3778 9.03639C17.3778 15.2919 15.292 17.3776 9.03655 17.3776C2.78107 17.3776 0.695312 15.2919 0.695312 9.03639Z"
      stroke="#343434" stroke-width="1.25" stroke-linecap="round" stroke-linejoin="round" />
  </symbol>

  <symbol xmlns="http://www.w3.org/2000/svg" viewBox="0 0 24 24" fill="none" id="arrow-tick">
    <path d="M5 11.6613L9.66118 16.3224L19 7.00008" stroke="#343434" stroke-width="1.5" stroke-linecap="round"
      stroke-linejoin="round" />
  </symbol>

  <symbol xmlns="http://www.w3.org/2000/svg" viewBox="0 0 24 24" fill="none" id="icon-plus">
    <path d="M6 12H18" stroke="#3CA9F0" stroke-width="1.5" stroke-linecap="round" stroke-linejoin="round" />
    <path d="M12 18V6" stroke="#3CA9F0" stroke-width="1.5" stroke-linecap="round" stroke-linejoin="round" />
  </symbol>

</svg>
